<?xml version="1.0" encoding="UTF-8" standalone="no"?>
<svg width="62px" height="62px" viewBox="0 0 62 62" version="1.1" xmlns="http://www.w3.org/2000/svg" xmlns:xlink="http://www.w3.org/1999/xlink" xmlns:sketch="http://www.bohemiancoding.com/sketch/ns">
    <!-- Generator: Sketch 3.3.3 (12072) - http://www.bohemiancoding.com/sketch -->
    <title>eye</title>
    <desc>Created with Sketch.</desc>
    <defs></defs>
    <g id="Page-1" stroke="none" stroke-width="1" fill="none" fill-rule="evenodd" sketch:type="MSPage">
        <g id="eye" sketch:type="MSLayerGroup">
            <rect id="Rectangle-1" opacity="0.01" fill="#FFFFFF" sketch:type="MSShapeGroup" x="0" y="0" width="62" height="62"></rect>
            <path d="M31.0037257,42.766533 C44.7815247,42.766533 55.9506397,32.1993229 55.9506378,30.810025 C55.9506358,29.4207272 44.7815247,19.0906253 31.0037257,19.0906253 C17.2259267,19.0906253 6.2850815,29.4327129 6.0568138,30.810025 C5.78585252,32.44494 17.2259267,42.766533 31.0037257,42.766533 Z" id="Oval-1-Copy-2" stroke="#FF5E5E" stroke-width="3" sketch:type="MSShapeGroup"></path>
            <path d="M31.0033495,39.6305664 C35.895316,39.6305664 39.8610384,35.6648441 39.8610384,30.7728776 C39.8610384,25.8809111 35.895316,21.9151887 31.0033495,21.9151887 C26.1113831,21.9151887 22.1456607,25.8809111 22.1456607,30.7728776 C22.1456607,35.6648441 26.1113831,39.6305664 31.0033495,39.6305664 Z M31.0033495,35.1456607 C33.418371,35.1456607 35.3761326,33.187899 35.3761326,30.7728776 C35.3761326,28.3578562 33.418371,26.4000945 31.0033495,26.4000945 C28.5883281,26.4000945 26.6305664,28.3578562 26.6305664,30.7728776 C26.6305664,33.187899 28.5883281,35.1456607 31.0033495,35.1456607 Z" id="Oval-1" fill="#FF5E5E" sketch:type="MSShapeGroup"></path>
        </g>
    </g>
</svg>