<?xml version="1.0" encoding="UTF-8" standalone="no"?>
<svg width="18px" height="9px" viewBox="0 0 18 9" version="1.1" xmlns="http://www.w3.org/2000/svg" xmlns:xlink="http://www.w3.org/1999/xlink" xmlns:sketch="http://www.bohemiancoding.com/sketch/ns">
    <!-- Generator: Sketch 3.3.3 (12072) - http://www.bohemiancoding.com/sketch -->
    <title>Slice 1</title>
    <desc>Created with Sketch.</desc>
    <defs></defs>
    <g id="Page-1" stroke="none" stroke-width="1" fill="none" fill-rule="evenodd" sketch:type="MSPage">
        <path d="M13.5106349,1.49707059 C13.1586756,1.18748933 12.6967978,1 12.1910254,1 L10.7763672,1 L3.00300534,1 C1.89628019,1 1,1.89455793 1,2.99805105 L1,5.72202915 C1,6.82770543 1.8968258,7.7200802 3.00311648,7.7200802 L12.185826,7.7200802 C12.7002263,7.7200802 13.1655694,7.53045667 13.5179881,7.21812267 C14.0834937,7.26567869 14.6656731,7.07348848 15.0983098,6.64085182 L15.9263016,5.81286001 C16.702045,5.03711665 16.7061431,3.76909503 15.9265788,2.98953073 L15.0159992,2.07895116 C14.6029849,1.66593684 14.0527045,1.47177237 13.5106349,1.49707059 L13.5106349,1.49707059 Z M13.3363392,6.47969156 C14.4723045,6.47969156 15.3931862,5.5588098 15.3931862,4.42284459 C15.3931862,3.28687937 14.4723045,2.36599761 13.3363392,2.36599761 C12.200374,2.36599761 11.2794923,3.28687937 11.2794923,4.42284459 C11.2794923,5.5588098 12.200374,6.47969156 13.3363392,6.47969156 Z" id="Rectangle-1-Copy-3" stroke="#979797" fill="#D8D8D8" sketch:type="MSShapeGroup"></path>
    </g>
</svg>