<?xml version="1.0" encoding="UTF-8" standalone="no"?>
<svg width="18px" height="9px" viewBox="0 0 18 9" version="1.1" xmlns="http://www.w3.org/2000/svg" xmlns:xlink="http://www.w3.org/1999/xlink" xmlns:sketch="http://www.bohemiancoding.com/sketch/ns">
        <path d="M12.0217841,2.7406944 C11.6660278,2.41948383 11.1943084,2.2230982 10.6768106,2.2230982 L10.3698696,2.2230982 L5.74294608,2.2230982 C4.64901854,2.2230982 3.74499989,3.11734878 3.74499989,4.22046277 L3.74499989,4.77953723 C3.74499989,5.87721675 4.6429916,6.7769018 5.75072051,6.7769018 L10.6766508,6.7769018 C11.2027536,6.7769018 11.6785348,6.57820233 12.0345372,6.2525898 C12.5783503,6.34938041 13.158318,6.18585038 13.579137,5.76503142 C14.2672079,5.07696049 14.2632732,3.97469403 13.5809891,3.29240993 L13.5216956,3.23311641 C13.1111075,2.8225283 12.5514829,2.65931366 12.0217841,2.7406944 L12.0217841,2.7406944 Z M12.1046123,5.93636328 C12.8743892,5.93636328 13.4984167,5.31233581 13.4984167,4.54255891 C13.4984167,3.77278201 12.8743892,3.14875454 12.1046123,3.14875454 C11.3348354,3.14875454 10.7108079,3.77278201 10.7108079,4.54255891 C10.7108079,5.31233581 11.3348354,5.93636328 12.1046123,5.93636328 Z" id="Rectangle-1-Copy-3" stroke="#979797" stroke-width="0.2" fill="#D8D8D8" sketch:type="MSShapeGroup" transform="translate(9.000000, 4.500000) rotate(-45.000000) translate(-9.000000, -4.500000) "></path>
</svg>